<svg width="9" height="18" viewBox="0 0 9 18" fill="none" xmlns="http://www.w3.org/2000/svg">
<path d="M1.00013 17.67C1.19013 17.67 1.38013 17.6 1.53013 17.45L8.05013 10.93C8.55943 10.4168 8.84521 9.72306 8.84521 9.00002C8.84521 8.27698 8.55943 7.58325 8.05013 7.07002L1.53013 0.55002C1.24013 0.26002 0.760131 0.26002 0.470131 0.55002C0.180131 0.84002 0.180131 1.32002 0.470131 1.61002L6.99013 8.13002C7.47013 8.61002 7.47013 9.39002 6.99013 9.87002L0.470131 16.39C0.180131 16.68 0.180131 17.16 0.470131 17.45C0.620131 17.59 0.810131 17.67 1.00013 17.67Z" fill="black"/>
</svg>
