<svg width="9" height="18" viewBox="0 0 9 18" fill="none" xmlns="http://www.w3.org/2000/svg">
<path d="M7.99987 17.67C7.80987 17.67 7.61987 17.6 7.46987 17.45L0.949869 10.93C0.440575 10.4168 0.154785 9.72306 0.154785 9.00002C0.154785 8.27698 0.440575 7.58325 0.949869 7.07002L7.46987 0.55002C7.75987 0.26002 8.23987 0.26002 8.52987 0.55002C8.81987 0.84002 8.81987 1.32002 8.52987 1.61002L2.00987 8.13002C1.52987 8.61002 1.52987 9.39002 2.00987 9.87002L8.52987 16.39C8.81987 16.68 8.81987 17.16 8.52987 17.45C8.37987 17.59 8.18987 17.67 7.99987 17.67Z" fill="black"/>
</svg>
