<svg width="30" height="30" viewBox="0 0 30 30" fill="none" xmlns="http://www.w3.org/2000/svg">
<path d="M15 28.4375C7.5875 28.4375 1.5625 22.4125 1.5625 15C1.5625 7.5875 7.5875 1.5625 15 1.5625C22.4125 1.5625 28.4375 7.5875 28.4375 15C28.4375 22.4125 22.4125 28.4375 15 28.4375ZM15 3.4375C8.625 3.4375 3.4375 8.625 3.4375 15C3.4375 21.375 8.625 26.5625 15 26.5625C21.375 26.5625 26.5625 21.375 26.5625 15C26.5625 8.625 21.375 3.4375 15 3.4375Z" fill="#C8A466"/>
<path d="M11.4625 19.475C11.225 19.475 10.9875 19.3875 10.8 19.2C10.6257 19.0236 10.5279 18.7856 10.5279 18.5375C10.5279 18.2895 10.6257 18.0514 10.8 17.875L17.875 10.8C18.2375 10.4375 18.8375 10.4375 19.2 10.8C19.5625 11.1625 19.5625 11.7625 19.2 12.125L12.125 19.2C11.95 19.3875 11.7 19.475 11.4625 19.475Z" fill="#C8A466"/>
<path d="M18.5375 19.475C18.3 19.475 18.0625 19.3875 17.875 19.2L10.8 12.125C10.6257 11.9486 10.5279 11.7105 10.5279 11.4625C10.5279 11.2145 10.6257 10.9764 10.8 10.8C11.1625 10.4375 11.7625 10.4375 12.125 10.8L19.2 17.875C19.5625 18.2375 19.5625 18.8375 19.2 19.2C19.0125 19.3875 18.775 19.475 18.5375 19.475Z" fill="#C8A466"/>
</svg>
