<svg width="24" height="24" viewBox="0 0 24 24" fill="none" xmlns="http://www.w3.org/2000/svg">
<path d="M12 12.75C8.83003 12.75 6.25003 10.17 6.25003 7C6.25003 3.83 8.83003 1.25 12 1.25C15.17 1.25 17.75 3.83 17.75 7C17.75 10.17 15.17 12.75 12 12.75ZM12 2.75C10.8737 2.75264 9.79421 3.20126 8.99775 3.99771C8.20129 4.79417 7.75268 5.87364 7.75003 7C7.75268 8.12636 8.20129 9.20583 8.99775 10.0023C9.79421 10.7987 10.8737 11.2474 12 11.25C13.1264 11.2474 14.2059 10.7987 15.0023 10.0023C15.7988 9.20583 16.2474 8.12636 16.25 7C16.2474 5.87364 15.7988 4.79417 15.0023 3.99771C14.2059 3.20126 13.1264 2.75264 12 2.75ZM20.59 22.75C20.18 22.75 19.84 22.41 19.84 22C19.84 18.55 16.32 15.75 12 15.75C7.68003 15.75 4.16003 18.55 4.16003 22C4.16003 22.41 3.82003 22.75 3.41003 22.75C3.00003 22.75 2.66003 22.41 2.66003 22C2.66003 17.73 6.85003 14.25 12 14.25C17.15 14.25 21.34 17.73 21.34 22C21.34 22.41 21 22.75 20.59 22.75Z" fill="#C8A466"/>
</svg>
