<svg width="202" height="49" viewBox="0 0 202 49" fill="none" xmlns="http://www.w3.org/2000/svg">
<path d="M7.64145 38C7.57547 37.4722 7.30791 37.0625 6.83876 36.7708C6.3696 36.4792 5.79416 36.3333 5.11242 36.3333C4.61394 36.3333 4.17778 36.4097 3.80392 36.5625C3.43373 36.7153 3.14418 36.9253 2.93526 37.1927C2.73 37.4601 2.62737 37.7639 2.62737 38.1042C2.62737 38.3889 2.69885 38.6337 2.84179 38.8385C2.9884 39.0399 3.17533 39.2083 3.40258 39.3437C3.62982 39.4757 3.86806 39.5851 4.1173 39.6719C4.36654 39.7552 4.59562 39.8229 4.80454 39.875L5.9481 40.1667C6.24132 40.2396 6.56753 40.3403 6.92672 40.4688C7.28958 40.5972 7.63595 40.7726 7.96582 40.9948C8.29936 41.2135 8.57426 41.4948 8.79051 41.8385C9.00676 42.1823 9.11488 42.6042 9.11488 43.1042C9.11488 43.6806 8.95544 44.2014 8.63657 44.6667C8.32135 45.1319 7.85953 45.5017 7.2511 45.776C6.64633 46.0503 5.91145 46.1875 5.04644 46.1875C4.24009 46.1875 3.54186 46.0642 2.95175 45.8177C2.36531 45.5712 1.90349 45.2274 1.56628 44.7865C1.23274 44.3455 1.04398 43.8333 1 43.25H2.40746C2.44411 43.6528 2.58706 43.9861 2.83629 44.25C3.0892 44.5104 3.40807 44.7049 3.79293 44.8333C4.18144 44.9583 4.59928 45.0208 5.04644 45.0208C5.56691 45.0208 6.03423 44.941 6.44841 44.7812C6.86258 44.6181 7.19062 44.3924 7.43253 44.1042C7.67444 43.8125 7.79539 43.4722 7.79539 43.0833C7.79539 42.7292 7.69093 42.441 7.48201 42.2188C7.27309 41.9965 6.9982 41.816 6.65733 41.6771C6.31646 41.5382 5.9481 41.4167 5.55225 41.3125L4.16678 40.9375C3.28712 40.6979 2.59072 40.3559 2.07759 39.9115C1.56445 39.467 1.30788 38.8854 1.30788 38.1667C1.30788 37.5694 1.47832 37.0486 1.81919 36.6042C2.16372 36.1562 2.62554 35.809 3.20465 35.5625C3.78743 35.3125 4.43801 35.1875 5.1564 35.1875C5.88212 35.1875 6.52721 35.3108 7.09166 35.5573C7.65611 35.8003 8.10327 36.1337 8.43314 36.5573C8.76668 36.9809 8.94262 37.4618 8.96094 38H7.64145Z" fill="#8C8C8C"/>
<path d="M14.7214 46.1667C13.9077 46.1667 13.2058 45.9965 12.6157 45.6562C12.0292 45.3125 11.5766 44.8333 11.2577 44.2188C10.9425 43.6007 10.7849 42.8819 10.7849 42.0625C10.7849 41.2431 10.9425 40.5208 11.2577 39.8958C11.5766 39.2674 12.0201 38.7778 12.5882 38.4271C13.16 38.0729 13.827 37.8958 14.5894 37.8958C15.0292 37.8958 15.4636 37.9653 15.8924 38.1042C16.3212 38.2431 16.7116 38.4687 17.0635 38.7812C17.4153 39.0903 17.6957 39.5 17.9046 40.0104C18.1136 40.5208 18.218 41.1493 18.218 41.8958V42.4167H11.7085V41.3542H16.8985C16.8985 40.9028 16.8032 40.5 16.6126 40.1458C16.4257 39.7917 16.1581 39.5122 15.8099 39.3073C15.4654 39.1024 15.0586 39 14.5894 39C14.0726 39 13.6254 39.1215 13.2479 39.3646C12.8741 39.6042 12.5863 39.9167 12.3848 40.3021C12.1832 40.6875 12.0824 41.1007 12.0824 41.5417V42.25C12.0824 42.8542 12.1923 43.3663 12.4122 43.7865C12.6358 44.2031 12.9455 44.5208 13.3414 44.7396C13.7372 44.9549 14.1972 45.0625 14.7214 45.0625C15.0622 45.0625 15.3701 45.0174 15.645 44.9271C15.9236 44.8333 16.1636 44.6944 16.3652 44.5104C16.5668 44.3229 16.7226 44.0903 16.8325 43.8125L18.0861 44.1458C17.9541 44.5486 17.7324 44.9028 17.4208 45.2083C17.1093 45.5104 16.7244 45.7465 16.2663 45.9167C15.8081 46.0833 15.2931 46.1667 14.7214 46.1667Z" fill="#8C8C8C"/>
<path d="M20.1917 46V38H21.4453V39.2083H21.5332C21.6872 38.8125 21.9657 38.4913 22.3689 38.2448C22.7721 37.9983 23.2266 37.875 23.7324 37.875C23.8277 37.875 23.9468 37.8767 24.0898 37.8802C24.2327 37.8837 24.3408 37.8889 24.4141 37.8958V39.1458C24.3701 39.1354 24.2694 39.1198 24.1117 39.099C23.9578 39.0747 23.7947 39.0625 23.6224 39.0625C23.2119 39.0625 22.8454 39.1441 22.5229 39.3073C22.204 39.467 21.9511 39.6892 21.7641 39.974C21.5809 40.2552 21.4893 40.5764 21.4893 40.9375V46H20.1917Z" fill="#8C8C8C"/>
<path d="M29.2358 46.1667C28.4221 46.1667 27.7202 45.9965 27.1301 45.6562C26.5436 45.3125 26.091 44.8333 25.7721 44.2188C25.4569 43.6007 25.2993 42.8819 25.2993 42.0625C25.2993 41.2431 25.4569 40.5208 25.7721 39.8958C26.091 39.2674 26.5345 38.7778 27.1026 38.4271C27.6744 38.0729 28.3415 37.8958 29.1038 37.8958C29.5437 37.8958 29.978 37.9653 30.4068 38.1042C30.8357 38.2431 31.226 38.4687 31.5779 38.7812C31.9297 39.0903 32.2101 39.5 32.4191 40.0104C32.628 40.5208 32.7324 41.1493 32.7324 41.8958V42.4167H26.2229V41.3542H31.4129C31.4129 40.9028 31.3176 40.5 31.127 40.1458C30.9401 39.7917 30.6726 39.5122 30.3244 39.3073C29.9798 39.1024 29.573 39 29.1038 39C28.587 39 28.1399 39.1215 27.7623 39.3646C27.3885 39.6042 27.1008 39.9167 26.8992 40.3021C26.6976 40.6875 26.5968 41.1007 26.5968 41.5417V42.25C26.5968 42.8542 26.7067 43.3663 26.9267 43.7865C27.1502 44.2031 27.46 44.5208 27.8558 44.7396C28.2517 44.9549 28.7116 45.0625 29.2358 45.0625C29.5766 45.0625 29.8845 45.0174 30.1594 44.9271C30.438 44.8333 30.6781 44.6944 30.8796 44.5104C31.0812 44.3229 31.237 44.0903 31.347 43.8125L32.6005 44.1458C32.4685 44.5486 32.2468 44.9028 31.9352 45.2083C31.6237 45.5104 31.2388 45.7465 30.7807 45.9167C30.3225 46.0833 29.8076 46.1667 29.2358 46.1667Z" fill="#8C8C8C"/>
<path d="M34.8821 46V35.3333H36.1796V39.2708H36.2896C36.3849 39.1319 36.5168 38.9549 36.6854 38.7396C36.8577 38.5208 37.1033 38.3264 37.4221 38.1563C37.7447 37.9826 38.1808 37.8958 38.7306 37.8958C39.4417 37.8958 40.0684 38.0642 40.6109 38.401C41.1534 38.7378 41.5767 39.2153 41.8809 39.8333C42.1851 40.4514 42.3372 41.1806 42.3372 42.0208C42.3372 42.8681 42.1851 43.6024 41.8809 44.224C41.5767 44.842 41.1552 45.3212 40.6164 45.6615C40.0776 45.9983 39.4563 46.1667 38.7526 46.1667C38.2102 46.1667 37.7758 46.0816 37.4496 45.9115C37.1234 45.7378 36.8723 45.5417 36.6964 45.3229C36.5205 45.1007 36.3849 44.9167 36.2896 44.7708H36.1356V46H34.8821ZM36.1576 42C36.1576 42.6042 36.2511 43.1372 36.438 43.599C36.6249 44.0573 36.898 44.4167 37.2572 44.6771C37.6164 44.934 38.0562 45.0625 38.5767 45.0625C39.1191 45.0625 39.5718 44.9271 39.9347 44.6562C40.3012 44.3819 40.5761 44.0139 40.7593 43.5521C40.9463 43.0868 41.0397 42.5694 41.0397 42C41.0397 41.4375 40.9481 40.9306 40.7648 40.4792C40.5852 40.0243 40.3122 39.6649 39.9457 39.401C39.5828 39.1337 39.1265 39 38.5767 39C38.0489 39 37.6054 39.1267 37.2462 39.3802C36.887 39.6302 36.6158 39.9809 36.4325 40.4323C36.2492 40.8802 36.1576 41.4028 36.1576 42Z" fill="#8C8C8C"/>
<path d="M44.322 46V38H45.5755V39.2083H45.6635C45.8174 38.8125 46.096 38.4913 46.4991 38.2448C46.9023 37.9983 47.3568 37.875 47.8626 37.875C47.9579 37.875 48.077 37.8767 48.22 37.8802C48.3629 37.8837 48.4711 37.8889 48.5444 37.8958V39.1458C48.5004 39.1354 48.3996 39.1198 48.242 39.099C48.088 39.0747 47.9249 39.0625 47.7527 39.0625C47.3422 39.0625 46.9756 39.1441 46.6531 39.3073C46.3342 39.467 46.0813 39.6892 45.8944 39.974C45.7111 40.2552 45.6195 40.5764 45.6195 40.9375V46H44.322Z" fill="#8C8C8C"/>
<path d="M51.1751 49C50.9552 49 50.7591 48.9826 50.5868 48.9479C50.4146 48.9167 50.2954 48.8854 50.2295 48.8542L50.5593 47.7708C50.8745 47.8472 51.1531 47.875 51.395 47.8542C51.6369 47.8333 51.8513 47.7309 52.0383 47.5469C52.2289 47.3663 52.403 47.0729 52.5606 46.6667L52.8025 46.0417L49.6797 38H51.0871L53.4182 44.375H53.5062L55.8373 38H57.2448L53.6601 47.1667C53.4989 47.5799 53.2991 47.9219 53.0609 48.1927C52.8226 48.467 52.5459 48.6701 52.2307 48.8021C51.9191 48.934 51.5673 49 51.1751 49Z" fill="#8C8C8C"/>
<path d="M61.1854 46.1875C60.6502 46.1875 60.1646 46.092 59.7284 45.901C59.2923 45.7066 58.9459 45.4271 58.6893 45.0625C58.4328 44.6944 58.3045 44.25 58.3045 43.7292C58.3045 43.2708 58.3998 42.8993 58.5904 42.6146C58.781 42.3264 59.0357 42.1007 59.3546 41.9375C59.6735 41.7743 60.0253 41.6528 60.4102 41.5729C60.7987 41.4896 61.189 41.4236 61.5812 41.375C62.0944 41.3125 62.5104 41.2656 62.8292 41.2344C63.1518 41.1997 63.3864 41.1424 63.533 41.0625C63.6832 40.9826 63.7584 40.8438 63.7584 40.6458V40.6042C63.7584 40.0903 63.6099 39.691 63.3131 39.4062C63.0198 39.1215 62.5745 38.9792 61.9771 38.9792C61.3576 38.9792 60.872 39.1076 60.5201 39.3646C60.1683 39.6215 59.9209 39.8958 59.7779 40.1875L58.5464 39.7708C58.7663 39.2847 59.0595 38.9062 59.426 38.6354C59.7962 38.3611 60.1994 38.1701 60.6356 38.0625C61.0754 37.9514 61.5079 37.8958 61.9331 37.8958C62.2043 37.8958 62.5159 37.9271 62.8677 37.9896C63.2233 38.0486 63.566 38.1719 63.8958 38.3594C64.2294 38.5469 64.5061 38.8299 64.726 39.2083C64.9459 39.5868 65.0559 40.0938 65.0559 40.7292V46H63.7584V44.9167H63.6924C63.6044 45.0903 63.4578 45.276 63.2526 45.474C63.0473 45.6719 62.7743 45.8403 62.4334 45.9792C62.0925 46.1181 61.6765 46.1875 61.1854 46.1875ZM61.3833 45.0833C61.8964 45.0833 62.3289 44.9878 62.6808 44.7969C63.0363 44.6059 63.3039 44.3594 63.4835 44.0573C63.6668 43.7552 63.7584 43.4375 63.7584 43.1042V41.9792C63.7034 42.0417 63.5825 42.099 63.3955 42.151C63.2123 42.1997 62.9997 42.2431 62.7578 42.2812C62.5195 42.316 62.2868 42.3472 62.0595 42.375C61.836 42.3993 61.6545 42.4201 61.5152 42.4375C61.178 42.4792 60.8628 42.5469 60.5696 42.6406C60.2801 42.7309 60.0455 42.8681 59.8659 43.0521C59.6899 43.2326 59.602 43.4792 59.602 43.7917C59.602 44.2188 59.7687 44.5417 60.1023 44.7604C60.4395 44.9757 60.8665 45.0833 61.3833 45.0833Z" fill="#8C8C8C"/>
<path d="M68.7216 41.1875V46H67.4241V38H68.6776V39.25H68.7876C68.9855 38.8437 69.2861 38.5174 69.6892 38.2708C70.0924 38.0208 70.6129 37.8958 71.2506 37.8958C71.8224 37.8958 72.3227 38.0069 72.7516 38.2292C73.1804 38.4479 73.5139 38.7812 73.7522 39.2292C73.9904 39.6736 74.1095 40.2361 74.1095 40.9167V46H72.812V41C72.812 40.3715 72.6398 39.8819 72.2952 39.5312C71.9507 39.1771 71.4779 39 70.8768 39C70.4626 39 70.0924 39.0851 69.7662 39.2552C69.4437 39.4253 69.1889 39.6736 69.002 40C68.8151 40.3264 68.7216 40.7222 68.7216 41.1875Z" fill="#8C8C8C"/>
<path d="M76.4805 46V38H77.778V46H76.4805ZM77.1402 36.6667C76.8873 36.6667 76.6693 36.5851 76.486 36.4219C76.3064 36.2587 76.2166 36.0625 76.2166 35.8333C76.2166 35.6042 76.3064 35.408 76.486 35.2448C76.6693 35.0816 76.8873 35 77.1402 35C77.3931 35 77.6094 35.0816 77.789 35.2448C77.9723 35.408 78.0639 35.6042 78.0639 35.8333C78.0639 36.0625 77.9723 36.2587 77.789 36.4219C77.6094 36.5851 77.3931 36.6667 77.1402 36.6667Z" fill="#8C8C8C"/>
<path d="M83.5851 46.1667C82.7934 46.1667 82.1117 45.9896 81.5399 45.6354C80.9681 45.2812 80.5283 44.7934 80.2204 44.1719C79.9126 43.5503 79.7586 42.8403 79.7586 42.0417C79.7586 41.2292 79.9162 40.5122 80.2314 39.8906C80.5503 39.2656 80.9938 38.7778 81.5619 38.4271C82.1337 38.0729 82.8008 37.8958 83.5631 37.8958C84.1569 37.8958 84.692 38 85.1685 38.2083C85.645 38.4167 86.0354 38.7083 86.3396 39.0833C86.6438 39.4583 86.8326 39.8958 86.9059 40.3958H85.6084C85.5094 40.0312 85.2895 39.7083 84.9486 39.4271C84.6114 39.1424 84.1569 39 83.5851 39C83.0793 39 82.6358 39.125 82.2547 39.375C81.8771 39.6215 81.5821 39.9705 81.3695 40.4219C81.1606 40.8698 81.0561 41.3958 81.0561 42C81.0561 42.6181 81.1587 43.1562 81.364 43.6146C81.5729 44.0729 81.8661 44.4288 82.2437 44.6823C82.6248 44.9358 83.072 45.0625 83.5851 45.0625C83.9223 45.0625 84.2284 45.0069 84.5033 44.8958C84.7782 44.7847 85.0109 44.625 85.2015 44.4167C85.3921 44.2083 85.5277 43.9583 85.6084 43.6667H86.9059C86.8326 44.1389 86.6511 44.5642 86.3616 44.9427C86.0757 45.3177 85.6963 45.6163 85.2235 45.8385C84.7544 46.0573 84.2082 46.1667 83.5851 46.1667Z" fill="#8C8C8C"/>
<path d="M90.1001 41.1875V46H88.8026V35.3333H90.1001V39.25H90.2101C90.408 38.8368 90.7049 38.5087 91.1008 38.2656C91.5003 38.0191 92.0317 37.8958 92.6951 37.8958C93.2706 37.8958 93.7746 38.0052 94.2071 38.224C94.6396 38.4392 94.9749 38.7708 95.2132 39.2188C95.4551 39.6632 95.576 40.2292 95.576 40.9167V46H94.2785V41C94.2785 40.3646 94.1044 39.8733 93.7562 39.526C93.4117 39.1753 92.9334 39 92.3213 39C91.8961 39 91.5149 39.0851 91.1777 39.2552C90.8442 39.4253 90.5803 39.6736 90.386 40C90.1954 40.3264 90.1001 40.7222 90.1001 41.1875Z" fill="#8C8C8C"/>
<path d="M101.49 46.1667C100.677 46.1667 99.9748 45.9965 99.3847 45.6562C98.7983 45.3125 98.3456 44.8333 98.0267 44.2188C97.7115 43.6007 97.5539 42.8819 97.5539 42.0625C97.5539 41.2431 97.7115 40.5208 98.0267 39.8958C98.3456 39.2674 98.7891 38.7778 99.3572 38.4271C99.929 38.0729 100.596 37.8958 101.358 37.8958C101.798 37.8958 102.233 37.9653 102.661 38.1042C103.09 38.2431 103.481 38.4687 103.832 38.7812C104.184 39.0903 104.465 39.5 104.674 40.0104C104.883 40.5208 104.987 41.1493 104.987 41.8958V42.4167H98.4775V41.3542H103.668C103.668 40.9028 103.572 40.5 103.382 40.1458C103.195 39.7917 102.927 39.5122 102.579 39.3073C102.234 39.1024 101.828 39 101.358 39C100.842 39 100.394 39.1215 100.017 39.3646C99.6431 39.6042 99.3554 39.9167 99.1538 40.3021C98.9522 40.6875 98.8514 41.1007 98.8514 41.5417V42.25C98.8514 42.8542 98.9614 43.3663 99.1813 43.7865C99.4049 44.2031 99.7146 44.5208 100.11 44.7396C100.506 44.9549 100.966 45.0625 101.49 45.0625C101.831 45.0625 102.139 45.0174 102.414 44.9271C102.693 44.8333 102.933 44.6944 103.134 44.5104C103.336 44.3229 103.492 44.0903 103.602 43.8125L104.855 44.1458C104.723 44.5486 104.501 44.9028 104.19 45.2083C103.878 45.5104 103.493 45.7465 103.035 45.9167C102.577 46.0833 102.062 46.1667 101.49 46.1667Z" fill="#8C8C8C"/>
<path d="M112.942 39.7917L111.777 40.1042C111.704 39.9201 111.596 39.7413 111.453 39.5677C111.313 39.3906 111.123 39.2448 110.881 39.1302C110.639 39.0156 110.329 38.9583 109.952 38.9583C109.435 38.9583 109.004 39.0712 108.66 39.2969C108.319 39.5191 108.148 39.8021 108.148 40.1458C108.148 40.4514 108.266 40.6927 108.5 40.8698C108.735 41.0469 109.101 41.1944 109.6 41.3125L110.853 41.6042C111.608 41.7778 112.171 42.0434 112.541 42.401C112.911 42.7552 113.096 43.2118 113.096 43.7708C113.096 44.2292 112.957 44.6389 112.679 45C112.404 45.3611 112.019 45.6458 111.524 45.8542C111.029 46.0625 110.454 46.1667 109.798 46.1667C108.936 46.1667 108.223 45.9896 107.659 45.6354C107.095 45.2812 106.737 44.7639 106.587 44.0833L107.818 43.7917C107.936 44.2222 108.157 44.5451 108.484 44.7604C108.814 44.9757 109.244 45.0833 109.776 45.0833C110.38 45.0833 110.861 44.9618 111.216 44.7188C111.575 44.4722 111.755 44.1771 111.755 43.8333C111.755 43.5556 111.652 43.3229 111.447 43.1354C111.242 42.9444 110.927 42.8021 110.501 42.7083L109.094 42.3958C108.321 42.2222 107.752 41.9531 107.39 41.5885C107.03 41.2205 106.851 40.7604 106.851 40.2083C106.851 39.7569 106.985 39.3576 107.252 39.0104C107.523 38.6632 107.892 38.3906 108.357 38.1927C108.826 37.9948 109.358 37.8958 109.952 37.8958C110.787 37.8958 111.443 38.0694 111.92 38.4167C112.4 38.7639 112.741 39.2222 112.942 39.7917Z" fill="#8C8C8C"/>
<path d="M116.259 43.0833L116.237 41.5625H116.501L120.196 38H121.801L117.864 41.7708H117.755L116.259 43.0833ZM115.05 46V35.3333H116.347V46H115.05ZM120.415 46L117.117 42.0417L118.04 41.1875L122.065 46H120.415Z" fill="#8C8C8C"/>
<path d="M123.471 46V38H124.768V46H123.471ZM124.131 36.6667C123.878 36.6667 123.66 36.5851 123.476 36.4219C123.297 36.2587 123.207 36.0625 123.207 35.8333C123.207 35.6042 123.297 35.408 123.476 35.2448C123.66 35.0816 123.878 35 124.131 35C124.384 35 124.6 35.0816 124.779 35.2448C124.963 35.408 125.054 35.6042 125.054 35.8333C125.054 36.0625 124.963 36.2587 124.779 36.4219C124.6 36.5851 124.384 36.6667 124.131 36.6667Z" fill="#8C8C8C"/>
<path d="M127.981 49C127.761 49 127.565 48.9826 127.392 48.9479C127.22 48.9167 127.101 48.8854 127.035 48.8542L127.365 47.7708C127.68 47.8472 127.959 47.875 128.2 47.8542C128.442 47.8333 128.657 47.7309 128.844 47.5469C129.034 47.3663 129.208 47.0729 129.366 46.6667L129.608 46.0417L126.485 38H127.893L130.224 44.375H130.312L132.643 38H134.05L130.466 47.1667C130.304 47.5799 130.105 47.9219 129.866 48.1927C129.628 48.467 129.351 48.6701 129.036 48.8021C128.725 48.934 128.373 49 127.981 49Z" fill="#8C8C8C"/>
<path d="M140.117 49V38H141.371V39.2708H141.525C141.62 39.1319 141.752 38.9549 141.92 38.7396C142.093 38.5208 142.338 38.3264 142.657 38.1563C142.98 37.9826 143.416 37.8958 143.966 37.8958C144.677 37.8958 145.304 38.0642 145.846 38.401C146.388 38.7378 146.812 39.2153 147.116 39.8333C147.42 40.4514 147.572 41.1806 147.572 42.0208C147.572 42.8681 147.42 43.6024 147.116 44.224C146.812 44.842 146.39 45.3212 145.851 45.6615C145.313 45.9983 144.691 46.1667 143.988 46.1667C143.445 46.1667 143.011 46.0816 142.685 45.9115C142.358 45.7378 142.107 45.5417 141.931 45.3229C141.756 45.1007 141.62 44.9167 141.525 44.7708H141.415V49H140.117ZM141.393 42C141.393 42.6042 141.486 43.1372 141.673 43.599C141.86 44.0573 142.133 44.4167 142.492 44.6771C142.851 44.934 143.291 45.0625 143.812 45.0625C144.354 45.0625 144.807 44.9271 145.17 44.6562C145.536 44.3819 145.811 44.0139 145.994 43.5521C146.181 43.0868 146.275 42.5694 146.275 42C146.275 41.4375 146.183 40.9306 146 40.4792C145.82 40.0243 145.547 39.6649 145.181 39.401C144.818 39.1337 144.362 39 143.812 39C143.284 39 142.84 39.1267 142.481 39.3802C142.122 39.6302 141.851 39.9809 141.668 40.4323C141.484 40.8802 141.393 41.4028 141.393 42Z" fill="#8C8C8C"/>
<path d="M153.092 46.1667C152.279 46.1667 151.577 45.9965 150.986 45.6562C150.4 45.3125 149.947 44.8333 149.629 44.2188C149.313 43.6007 149.156 42.8819 149.156 42.0625C149.156 41.2431 149.313 40.5208 149.629 39.8958C149.947 39.2674 150.391 38.7778 150.959 38.4271C151.531 38.0729 152.198 37.8958 152.96 37.8958C153.4 37.8958 153.834 37.9653 154.263 38.1042C154.692 38.2431 155.082 38.4687 155.434 38.7812C155.786 39.0903 156.067 39.5 156.275 40.0104C156.484 40.5208 156.589 41.1493 156.589 41.8958V42.4167H150.079V41.3542H155.269C155.269 40.9028 155.174 40.5 154.983 40.1458C154.797 39.7917 154.529 39.5122 154.181 39.3073C153.836 39.1024 153.429 39 152.96 39C152.443 39 151.996 39.1215 151.619 39.3646C151.245 39.6042 150.957 39.9167 150.756 40.3021C150.554 40.6875 150.453 41.1007 150.453 41.5417V42.25C150.453 42.8542 150.563 43.3663 150.783 43.7865C151.007 44.2031 151.316 44.5208 151.712 44.7396C152.108 44.9549 152.568 45.0625 153.092 45.0625C153.433 45.0625 153.741 45.0174 154.016 44.9271C154.294 44.8333 154.534 44.6944 154.736 44.5104C154.938 44.3229 155.093 44.0903 155.203 43.8125L156.457 44.1458C156.325 44.5486 156.103 44.9028 155.792 45.2083C155.48 45.5104 155.095 45.7465 154.637 45.9167C154.179 46.0833 153.664 46.1667 153.092 46.1667Z" fill="#8C8C8C"/>
<path d="M158.563 46V38H159.816V39.2083H159.904C160.058 38.8125 160.337 38.4913 160.74 38.2448C161.143 37.9983 161.597 37.875 162.103 37.875C162.199 37.875 162.318 37.8767 162.461 37.8802C162.604 37.8837 162.712 37.8889 162.785 37.8958V39.1458C162.741 39.1354 162.64 39.1198 162.483 39.099C162.329 39.0747 162.166 39.0625 161.993 39.0625C161.583 39.0625 161.216 39.1441 160.894 39.3073C160.575 39.467 160.322 39.6892 160.135 39.974C159.952 40.2552 159.86 40.5764 159.86 40.9375V46H158.563Z" fill="#8C8C8C"/>
<path d="M167.607 46.1667C166.793 46.1667 166.091 45.9965 165.501 45.6562C164.914 45.3125 164.462 44.8333 164.143 44.2188C163.828 43.6007 163.67 42.8819 163.67 42.0625C163.67 41.2431 163.828 40.5208 164.143 39.8958C164.462 39.2674 164.905 38.7778 165.473 38.4271C166.045 38.0729 166.712 37.8958 167.475 37.8958C167.914 37.8958 168.349 37.9653 168.778 38.1042C169.206 38.2431 169.597 38.4687 169.949 38.7812C170.301 39.0903 170.581 39.5 170.79 40.0104C170.999 40.5208 171.103 41.1493 171.103 41.8958V42.4167H164.594V41.3542H169.784C169.784 40.9028 169.688 40.5 169.498 40.1458C169.311 39.7917 169.043 39.5122 168.695 39.3073C168.351 39.1024 167.944 39 167.475 39C166.958 39 166.511 39.1215 166.133 39.3646C165.759 39.6042 165.472 39.9167 165.27 40.3021C165.068 40.6875 164.968 41.1007 164.968 41.5417V42.25C164.968 42.8542 165.078 43.3663 165.298 43.7865C165.521 44.2031 165.831 44.5208 166.227 44.7396C166.622 44.9549 167.082 45.0625 167.607 45.0625C167.947 45.0625 168.255 45.0174 168.53 44.9271C168.809 44.8333 169.049 44.6944 169.25 44.5104C169.452 44.3229 169.608 44.0903 169.718 43.8125L170.971 44.1458C170.839 44.5486 170.618 44.9028 170.306 45.2083C169.995 45.5104 169.61 45.7465 169.152 45.9167C168.693 46.0833 168.178 46.1667 167.607 46.1667Z" fill="#8C8C8C"/>
<path d="M178.399 42.7292V38H179.696V46H178.399V44.6458H178.311C178.113 45.0521 177.805 45.3976 177.387 45.6823C176.97 45.9635 176.442 46.1042 175.804 46.1042C175.276 46.1042 174.807 45.9948 174.396 45.776C173.986 45.5538 173.663 45.2205 173.429 44.776C173.194 44.3281 173.077 43.7639 173.077 43.0833V38H174.375V43C174.375 43.5833 174.547 44.0486 174.891 44.3958C175.24 44.7431 175.683 44.9167 176.222 44.9167C176.544 44.9167 176.872 44.8385 177.206 44.6823C177.543 44.526 177.825 44.2865 178.053 43.9635C178.283 43.6406 178.399 43.2292 178.399 42.7292Z" fill="#8C8C8C"/>
<path d="M183.37 35.3333V46H182.073V35.3333H183.37Z" fill="#8C8C8C"/>
<path d="M189.178 46.1667C188.415 46.1667 187.746 45.9948 187.171 45.651C186.599 45.3073 186.152 44.8264 185.829 44.2083C185.51 43.5903 185.351 42.8681 185.351 42.0417C185.351 41.2083 185.51 40.4809 185.829 39.8594C186.152 39.2378 186.599 38.7552 187.171 38.4115C187.746 38.0677 188.415 37.8958 189.178 37.8958C189.94 37.8958 190.607 38.0677 191.179 38.4115C191.754 38.7552 192.201 39.2378 192.52 39.8594C192.843 40.4809 193.004 41.2083 193.004 42.0417C193.004 42.8681 192.843 43.5903 192.52 44.2083C192.201 44.8264 191.754 45.3073 191.179 45.651C190.607 45.9948 189.94 46.1667 189.178 46.1667ZM189.178 45.0625C189.757 45.0625 190.233 44.9219 190.607 44.6406C190.981 44.3594 191.258 43.9896 191.437 43.5312C191.617 43.0729 191.707 42.5764 191.707 42.0417C191.707 41.5069 191.617 41.0087 191.437 40.5469C191.258 40.0851 190.981 39.7118 190.607 39.4271C190.233 39.1424 189.757 39 189.178 39C188.598 39 188.122 39.1424 187.748 39.4271C187.374 39.7118 187.098 40.0851 186.918 40.5469C186.738 41.0087 186.649 41.5069 186.649 42.0417C186.649 42.5764 186.738 43.0729 186.918 43.5312C187.098 43.9896 187.374 44.3594 187.748 44.6406C188.122 44.9219 188.598 45.0625 189.178 45.0625Z" fill="#8C8C8C"/>
<path d="M196.194 43.0833L196.172 41.5625H196.436L200.131 38H201.736L197.8 41.7708H197.69L196.194 43.0833ZM194.985 46V35.3333H196.282V46H194.985ZM200.351 46L197.052 42.0417L197.976 41.1875L202 46H200.351Z" fill="#8C8C8C"/>
<path d="M117.446 2.28574C117.359 2.98749 117.293 3.66919 117.249 4.33085C117.227 4.9925 117.216 5.49376 117.216 5.83461C117.216 6.19551 117.227 6.54639 117.249 6.88724C117.271 7.20804 117.293 7.47872 117.315 7.69927H116.557C116.425 6.51631 116.239 5.58398 115.997 4.90228C115.756 4.20052 115.339 3.7093 114.746 3.42859C114.175 3.12784 113.308 2.97746 112.144 2.97746H110.398C109.652 2.97746 109.081 3.03762 108.686 3.15792C108.313 3.25817 108.06 3.48874 107.928 3.84965C107.797 4.1905 107.731 4.73185 107.731 5.47371V20.391C107.731 21.0928 107.775 21.6341 107.862 22.0151C107.972 22.396 108.181 22.6567 108.488 22.797C108.818 22.9173 109.301 22.9775 109.937 22.9775C111.452 22.9775 112.594 22.7268 113.363 22.2256C114.153 21.7043 114.691 21.0126 114.976 20.1504C115.262 19.2682 115.405 18.3058 115.405 17.2632C115.405 15.9399 115.218 14.8572 114.845 14.0151C114.493 13.1529 113.889 12.5213 113.033 12.1203C112.199 11.6993 111.068 11.4887 109.641 11.4887C109.399 11.4887 109.004 11.4988 108.455 11.5188C107.928 11.5188 107.412 11.5288 106.907 11.5489C106.402 11.5489 106.051 11.5489 105.853 11.5489L105.788 10.9775C106.819 10.9775 107.808 10.9674 108.752 10.9474C109.696 10.9273 110.365 10.9173 110.761 10.9173C112.078 10.9173 113.231 11.0777 114.219 11.3985C115.229 11.6993 116.063 12.1303 116.722 12.6918C117.381 13.2532 117.875 13.9248 118.204 14.7068C118.533 15.4687 118.698 16.3108 118.698 17.2331C118.698 18.0151 118.566 18.787 118.303 19.5489C118.039 20.2908 117.578 20.9725 116.92 21.594C116.283 22.1955 115.405 22.6767 114.285 23.0376C113.165 23.3985 111.749 23.579 110.036 23.579C109.465 23.579 108.894 23.5689 108.323 23.5489C107.775 23.5088 106.962 23.4887 105.886 23.4887C105.272 23.4887 104.58 23.4988 103.811 23.5188C103.065 23.5188 102.461 23.5389 102 23.579V22.9775C102.747 22.9374 103.306 22.8572 103.68 22.7369C104.075 22.6166 104.338 22.376 104.47 22.0151C104.602 21.6542 104.668 21.1128 104.668 20.391V5.47371C104.668 4.73185 104.602 4.1905 104.47 3.84965C104.338 3.48874 104.075 3.24814 103.68 3.12784C103.306 2.98749 102.747 2.90729 102 2.88724V2.28574C102.812 2.30579 103.669 2.32584 104.569 2.34589C105.469 2.34589 106.358 2.35591 107.237 2.37596C108.115 2.37596 108.927 2.37596 109.674 2.37596C110.442 2.37596 111.068 2.37596 111.551 2.37596C112.407 2.37596 113.384 2.37596 114.482 2.37596C115.58 2.35591 116.568 2.32584 117.446 2.28574Z" fill="black"/>
<path d="M125.868 23.7895C124.968 23.7895 124.188 23.6391 123.53 23.3384C122.871 23.0176 122.366 22.5765 122.015 22.0151C121.685 21.4537 121.521 20.802 121.521 20.0602C121.521 19.178 121.74 18.4562 122.179 17.8948C122.64 17.3334 123.222 16.8822 123.925 16.5414C124.627 16.2005 125.363 15.9198 126.132 15.6993C126.922 15.4587 127.668 15.2381 128.371 15.0376C129.074 14.8171 129.645 14.5664 130.084 14.2857C130.545 14.005 130.775 13.6341 130.775 13.173V11.3083C130.775 10.4662 130.633 9.82458 130.347 9.38348C130.084 8.94238 129.721 8.65165 129.26 8.5113C128.799 8.3509 128.283 8.2707 127.712 8.2707C127.163 8.2707 126.571 8.34088 125.934 8.48123C125.319 8.62158 124.825 8.9123 124.452 9.35341C124.869 9.43361 125.231 9.63411 125.539 9.95491C125.846 10.2757 126 10.6867 126 11.188C126 11.6892 125.824 12.0902 125.473 12.391C125.122 12.6717 124.671 12.8121 124.122 12.8121C123.486 12.8121 123.014 12.6316 122.706 12.2707C122.421 11.8897 122.278 11.4687 122.278 11.0075C122.278 10.4862 122.421 10.0652 122.706 9.74438C122.992 9.42358 123.354 9.12283 123.793 8.84213C124.298 8.52133 124.946 8.25065 125.736 8.0301C126.549 7.7895 127.46 7.6692 128.47 7.6692C129.37 7.6692 130.139 7.76944 130.775 7.96995C131.412 8.1504 131.939 8.42107 132.356 8.78198C132.927 9.26318 133.3 9.85466 133.476 10.5564C133.652 11.2381 133.74 12.0602 133.74 13.0226V21.3835C133.74 21.8847 133.816 22.2456 133.97 22.4662C134.146 22.6867 134.409 22.797 134.76 22.797C135.002 22.797 135.233 22.7469 135.452 22.6466C135.672 22.5464 135.935 22.386 136.243 22.1654L136.605 22.6767C136.144 22.9975 135.705 23.2682 135.287 23.4887C134.87 23.6892 134.31 23.7895 133.608 23.7895C132.971 23.7895 132.444 23.6892 132.027 23.4887C131.61 23.2882 131.291 22.9975 131.072 22.6166C130.874 22.2156 130.775 21.7143 130.775 21.1128C130.183 22.0151 129.469 22.6867 128.635 23.1278C127.822 23.5689 126.9 23.7895 125.868 23.7895ZM127.054 22.5865C127.778 22.5865 128.448 22.396 129.063 22.0151C129.699 21.6341 130.27 21.0627 130.775 20.3008V14.406C130.512 14.7469 130.128 15.0376 129.623 15.2782C129.118 15.4988 128.569 15.7293 127.976 15.9699C127.383 16.1905 126.812 16.4612 126.263 16.782C125.736 17.0827 125.297 17.4837 124.946 17.985C124.595 18.4862 124.419 19.1379 124.419 19.9399C124.419 20.7419 124.649 21.3835 125.111 21.8647C125.594 22.3459 126.241 22.5865 127.054 22.5865Z" fill="black"/>
<path d="M155.807 8.12032V8.7519C154.907 8.7519 154.259 8.90228 153.864 9.20303C153.491 9.50378 153.304 10.0752 153.304 10.9173V20.782C153.304 21.6241 153.491 22.1955 153.864 22.4963C154.259 22.797 154.907 22.9474 155.807 22.9474V23.579C155.434 23.5589 154.863 23.5389 154.095 23.5188C153.326 23.4787 152.58 23.4587 151.855 23.4587C151.131 23.4587 150.417 23.4787 149.714 23.5188C149.034 23.5389 148.518 23.5589 148.167 23.579V22.9474C148.957 22.9474 149.517 22.797 149.846 22.4963C150.176 22.1955 150.34 21.6241 150.34 20.782V10.9173C150.34 10.0752 150.176 9.50378 149.846 9.20303C149.517 8.90228 148.957 8.7519 148.167 8.7519V8.12032C148.518 8.14037 149.034 8.17045 149.714 8.21055C150.417 8.2306 151.131 8.24062 151.855 8.24062C152.58 8.24062 153.326 8.2306 154.095 8.21055C154.863 8.17045 155.434 8.14037 155.807 8.12032ZM145.235 8.12032V8.7519C144.445 8.7519 143.885 8.90228 143.556 9.20303C143.226 9.50378 143.062 10.0752 143.062 10.9173V20.782C143.062 21.6241 143.226 22.1955 143.556 22.4963C143.885 22.797 144.445 22.9474 145.235 22.9474V23.579C144.884 23.5589 144.357 23.5389 143.654 23.5188C142.974 23.4787 142.271 23.4587 141.547 23.4587C140.822 23.4587 140.076 23.4787 139.307 23.5188C138.539 23.5389 137.968 23.5589 137.594 23.579V22.9474C138.495 22.9474 139.131 22.797 139.505 22.4963C139.9 22.1955 140.097 21.6241 140.097 20.782V10.9173C140.097 10.0752 139.9 9.50378 139.505 9.20303C139.131 8.90228 138.495 8.7519 137.594 8.7519V8.12032C137.968 8.14037 138.539 8.17045 139.307 8.21055C140.076 8.2306 140.822 8.24062 141.547 8.24062C142.271 8.24062 142.974 8.2306 143.654 8.21055C144.357 8.17045 144.884 8.14037 145.235 8.12032ZM151.262 15.3083V15.9098H141.975V15.3083H151.262Z" fill="black"/>
<path d="M172.22 7.6692C172.988 7.6692 173.526 7.83962 173.834 8.18047C174.163 8.52133 174.328 8.90228 174.328 9.32333C174.328 9.76443 174.174 10.1454 173.867 10.4662C173.559 10.7669 173.131 10.9173 172.582 10.9173C172.187 10.9173 171.847 10.8371 171.561 10.6767C171.276 10.5163 171.056 10.2958 170.902 10.0151C170.749 9.71431 170.672 9.37346 170.672 8.9925C170.672 8.9524 170.672 8.9123 170.672 8.8722C170.672 8.8321 170.672 8.80203 170.672 8.78198C170.43 8.88223 170.211 9.06268 170.013 9.32333C169.837 9.58398 169.651 9.93486 169.453 10.376C169.256 10.8171 169.025 11.3584 168.762 12C168.542 12.5414 168.29 13.0627 168.004 13.5639C167.719 14.0652 167.323 14.4862 166.818 14.8271C166.313 15.1679 165.622 15.3885 164.744 15.4887L165.04 15.2782C166.357 15.2381 167.51 15.3684 168.498 15.6692C169.508 15.9699 170.299 16.5314 170.869 17.3534C171.243 17.8747 171.55 18.5163 171.792 19.2782C172.055 20.0401 172.33 20.7118 172.615 21.2933C172.857 21.7945 173.131 22.1855 173.438 22.4662C173.768 22.7268 174.273 22.8872 174.953 22.9474V23.579C174.602 23.6391 174.251 23.6893 173.899 23.7294C173.548 23.7695 173.219 23.7895 172.911 23.7895C171.923 23.7895 171.199 23.579 170.738 23.1579C170.277 22.7168 169.925 22.1253 169.684 21.3835C169.574 21.0426 169.442 20.6316 169.289 20.1504C169.135 19.6491 168.948 19.1479 168.729 18.6466C168.509 18.1253 168.246 17.6742 167.938 17.2933C167.455 16.6717 166.829 16.2707 166.061 16.0903C165.292 15.8897 164.293 15.8095 163.064 15.8496V15.3384C164.272 15.2782 165.205 15.0978 165.863 14.797C166.522 14.4762 167.027 14.0351 167.378 13.4737C167.73 12.9123 168.048 12.2507 168.333 11.4887C168.553 10.9273 168.795 10.3559 169.058 9.77446C169.322 9.17295 169.695 8.6717 170.178 8.2707C170.683 7.8697 171.363 7.6692 172.22 7.6692ZM165.369 8.12032V8.7519C164.579 8.7519 164.019 8.90228 163.69 9.20303C163.36 9.50378 163.196 10.0752 163.196 10.9173V20.782C163.196 21.6241 163.36 22.1955 163.69 22.4963C164.019 22.797 164.579 22.9474 165.369 22.9474V23.579C165.018 23.5589 164.491 23.5389 163.788 23.5188C163.086 23.4787 162.372 23.4587 161.648 23.4587C160.923 23.4587 160.177 23.4787 159.408 23.5188C158.662 23.5389 158.102 23.5589 157.728 23.579V22.9474C158.629 22.9474 159.265 22.797 159.639 22.4963C160.034 22.1955 160.232 21.6241 160.232 20.782V10.9173C160.232 10.0752 160.034 9.50378 159.639 9.20303C159.265 8.90228 158.629 8.7519 157.728 8.7519V8.12032C158.102 8.14037 158.662 8.17045 159.408 8.21055C160.177 8.2306 160.923 8.24062 161.648 8.24062C162.372 8.24062 163.086 8.2306 163.788 8.21055C164.491 8.17045 165.018 8.14037 165.369 8.12032Z" fill="black"/>
<path d="M191.001 2.28574V2.88724C190.079 2.90729 189.377 2.98749 188.894 3.12784C188.411 3.24814 188.081 3.48874 187.906 3.84965C187.752 4.1905 187.675 4.73185 187.675 5.47371V20.391C187.675 21.1128 187.73 21.6642 187.84 22.0451C187.949 22.406 188.169 22.6567 188.498 22.797C188.828 22.9173 189.322 22.9775 189.98 22.9775C191.452 22.9775 192.571 22.7168 193.34 22.1955C194.108 21.6542 194.635 20.9524 194.921 20.0903C195.206 19.2281 195.349 18.2857 195.349 17.2632C195.349 16 195.162 14.9374 194.789 14.0752C194.438 13.2131 193.867 12.5715 193.076 12.1504C192.286 11.7093 191.221 11.4887 189.882 11.4887C189.421 11.4887 188.916 11.4988 188.367 11.5188C187.84 11.5188 187.335 11.5288 186.852 11.5489C186.391 11.5489 186.039 11.5489 185.798 11.5489L185.732 10.9775C186.764 10.9775 187.752 10.9674 188.696 10.9474C189.64 10.9273 190.31 10.9173 190.705 10.9173C192.022 10.9173 193.175 11.0677 194.163 11.3684C195.173 11.6692 196.008 12.0902 196.666 12.6316C197.325 13.1529 197.819 13.7845 198.148 14.5263C198.478 15.2481 198.642 16.0501 198.642 16.9324C198.642 17.6542 198.511 18.406 198.247 19.188C197.984 19.9699 197.523 20.6918 196.864 21.3534C196.227 22.0151 195.349 22.5564 194.229 22.9775C193.109 23.3785 191.693 23.579 189.98 23.579C189.475 23.579 188.905 23.5689 188.268 23.5489C187.631 23.5088 186.928 23.4887 186.16 23.4887C185.304 23.4887 184.502 23.4988 183.756 23.5188C183.009 23.5188 182.405 23.5389 181.944 23.579V22.9775C182.691 22.9374 183.251 22.8572 183.624 22.7369C184.019 22.6166 184.283 22.376 184.414 22.0151C184.546 21.6542 184.612 21.1128 184.612 20.391V2.97746H182.504C181.472 2.97746 180.649 3.07772 180.034 3.27822C179.419 3.47872 178.936 3.79952 178.585 4.24062C178.256 4.66168 178.003 5.2331 177.827 5.95491C177.674 6.67671 177.542 7.55892 177.432 8.60153H176.675C176.741 7.95992 176.774 7.13787 176.774 6.13536C176.774 5.75441 176.752 5.21305 176.708 4.5113C176.686 3.7895 176.631 3.04764 176.543 2.28574C177.97 2.32584 179.54 2.35591 181.253 2.37596C182.987 2.37596 184.623 2.37596 186.16 2.37596C186.753 2.37596 187.346 2.37596 187.939 2.37596C188.531 2.35591 189.091 2.34589 189.618 2.34589C190.167 2.32584 190.628 2.30579 191.001 2.28574Z" fill="black"/>
<path d="M14.2668 23.5789V22.9774C15.0133 22.9373 15.5732 22.8571 15.9465 22.7368C16.3417 22.6165 16.6052 22.3759 16.7369 22.015C16.8686 21.6541 16.9345 21.1128 16.9345 20.391V5.47368C16.9345 4.73183 16.8686 4.19048 16.7369 3.84962C16.6052 3.48872 16.3417 3.24812 15.9465 3.12782C15.5732 2.98747 15.0133 2.90727 14.2668 2.88722V2.28572C14.7718 2.30576 15.4085 2.32582 16.177 2.34587C16.9455 2.36591 17.703 2.37594 18.4495 2.37594C19.3058 2.37594 20.1072 2.36591 20.8538 2.34587C21.6003 2.32582 22.2041 2.30576 22.6652 2.28572V2.88722C21.9187 2.90727 21.3478 2.98747 20.9526 3.12782C20.5793 3.24812 20.3268 3.48872 20.1951 3.84962C20.0633 4.19048 19.9975 4.73183 19.9975 5.47368V20.391C19.9975 21.1128 20.0633 21.6541 20.1951 22.015C20.3268 22.3759 20.5793 22.6165 20.9526 22.7368C21.3478 22.8571 21.9187 22.9373 22.6652 22.9774V23.5789C22.2041 23.5388 21.6003 23.5188 20.8538 23.5188C20.1072 23.4987 19.3058 23.4887 18.4495 23.4887C17.703 23.4887 16.9455 23.4987 16.177 23.5188C15.4085 23.5188 14.7718 23.5388 14.2668 23.5789ZM0.5 23.5789V22.9774C1.24652 22.9373 1.80642 22.8571 2.17968 22.7368C2.5749 22.6165 2.83838 22.3759 2.97012 22.015C3.10186 21.6541 3.16773 21.1128 3.16773 20.391V5.47368C3.16773 4.73183 3.10186 4.19048 2.97012 3.84962C2.83838 3.48872 2.5749 3.24812 2.17968 3.12782C1.80642 2.98747 1.24652 2.90727 0.5 2.88722V2.28572C0.961089 2.30576 1.5649 2.32582 2.31142 2.34587C3.05795 2.36591 3.85937 2.37594 4.71568 2.37594C5.48416 2.37594 6.24166 2.36591 6.98818 2.34587C7.75666 2.32582 8.3934 2.30576 8.8984 2.28572V2.88722C8.15188 2.90727 7.581 2.98747 7.18578 3.12782C6.81252 3.24812 6.56002 3.48872 6.42828 3.84962C6.29654 4.19048 6.23067 4.73183 6.23067 5.47368V20.391C6.23067 21.1128 6.29654 21.6541 6.42828 22.015C6.56002 22.3759 6.81252 22.6165 7.18578 22.7368C7.581 22.8571 8.15188 22.9373 8.8984 22.9774V23.5789C8.3934 23.5388 7.75666 23.5188 6.98818 23.5188C6.24166 23.4987 5.48416 23.4887 4.71568 23.4887C3.85937 23.4887 3.05795 23.4987 2.31142 23.5188C1.5649 23.5188 0.961089 23.5388 0.5 23.5789ZM5.07795 13.1729V12.5714H18.0872V13.1729H5.07795Z" fill="black"/>
<path d="M32.4883 7.66917C33.8935 7.66917 35.156 7.94987 36.2758 8.51128C37.3956 9.07268 38.2848 9.95489 38.9435 11.1579C39.6242 12.3609 39.9645 13.9248 39.9645 15.8496C39.9645 17.7744 39.6242 19.3383 38.9435 20.5414C38.2848 21.7243 37.3956 22.5965 36.2758 23.1579C35.156 23.7193 33.8935 24 32.4883 24C31.105 24 29.8425 23.7193 28.7008 23.1579C27.581 22.5965 26.6808 21.7243 26.0001 20.5414C25.3414 19.3383 25.012 17.7744 25.012 15.8496C25.012 13.9248 25.3414 12.3609 26.0001 11.1579C26.6808 9.95489 27.581 9.07268 28.7008 8.51128C29.8425 7.94987 31.105 7.66917 32.4883 7.66917ZM32.4883 8.27068C31.2367 8.27068 30.2048 8.86216 29.3924 10.0451C28.602 11.2281 28.2067 13.1629 28.2067 15.8496C28.2067 18.5363 28.602 20.4712 29.3924 21.6541C30.2048 22.817 31.2367 23.3985 32.4883 23.3985C33.7398 23.3985 34.7608 22.817 35.5512 21.6541C36.3636 20.4712 36.7698 18.5363 36.7698 15.8496C36.7698 13.1629 36.3636 11.2281 35.5512 10.0451C34.7608 8.86216 33.7398 8.27068 32.4883 8.27068Z" fill="black"/>
<path d="M48.358 7.66917C49.2363 7.66917 49.9828 7.7995 50.5976 8.06015C51.2124 8.3208 51.6625 8.5614 51.9479 8.78195C52.6725 9.32331 53.1116 8.96241 53.2653 7.69925H54.0228C53.9789 8.26065 53.946 8.93233 53.924 9.71429C53.902 10.4762 53.8911 11.5088 53.8911 12.812H53.1336C53.0018 12.0702 52.7713 11.3484 52.4419 10.6466C52.1345 9.94486 51.6735 9.37343 51.0587 8.93233C50.4439 8.47118 49.6425 8.2406 48.6544 8.2406C47.8859 8.2406 47.2382 8.4411 46.7113 8.84211C46.2063 9.22306 45.9538 9.79449 45.9538 10.5564C45.9538 11.1579 46.1514 11.6792 46.5466 12.1203C46.9418 12.5414 47.4578 12.9424 48.0945 13.3233C48.7313 13.6842 49.4229 14.0852 50.1694 14.5263C51.0038 15.0075 51.7613 15.4987 52.4419 16C53.1226 16.5013 53.6605 17.0526 54.0557 17.6541C54.4729 18.2556 54.6815 18.9674 54.6815 19.7895C54.6815 20.7118 54.418 21.4837 53.8911 22.1053C53.3641 22.7268 52.6725 23.198 51.8162 23.5188C50.9818 23.8396 50.0596 24 49.0496 24C48.5666 24 48.1055 23.9599 47.6664 23.8797C47.2492 23.8195 46.843 23.7193 46.4478 23.5789C46.2282 23.4787 45.9977 23.3584 45.7562 23.218C45.5366 23.0777 45.317 22.9273 45.0975 22.7669C44.8779 22.6065 44.6803 22.6165 44.5046 22.797C44.329 22.9574 44.1972 23.2882 44.1094 23.7895H43.3519C43.3958 23.1479 43.4287 22.3659 43.4507 21.4436C43.4727 20.5213 43.4837 19.2982 43.4837 17.7744H44.2412C44.3949 18.8972 44.6144 19.8797 44.8998 20.7218C45.1853 21.5639 45.6354 22.2256 46.2502 22.7068C46.865 23.1679 47.7213 23.3985 48.8191 23.3985C49.2582 23.3985 49.6974 23.3083 50.1365 23.1278C50.5976 22.9474 50.9818 22.6466 51.2892 22.2256C51.5966 21.8045 51.7503 21.2431 51.7503 20.5414C51.7503 19.6591 51.399 18.9373 50.6964 18.3759C49.9938 17.8145 49.1045 17.2231 48.0287 16.6015C47.2382 16.1404 46.4917 15.6792 45.7891 15.218C45.1084 14.7569 44.5485 14.2356 44.1094 13.6541C43.6922 13.0727 43.4837 12.3709 43.4837 11.5489C43.4837 10.6466 43.7032 9.91479 44.1423 9.35338C44.6034 8.77193 45.2072 8.35088 45.9538 8.09023C46.7003 7.80952 47.5017 7.66917 48.358 7.66917Z" fill="black"/>
<path d="M62.4958 3.09774V8.1203H67.3702V8.7218H62.4958V20.3609C62.4958 21.3033 62.6825 21.9649 63.0557 22.3459C63.429 22.7268 63.945 22.9173 64.6037 22.9173C65.2624 22.9173 65.8332 22.6767 66.3163 22.1955C66.7993 21.6942 67.2165 20.8622 67.5678 19.6992L68.2265 19.8496C68.0069 21.0125 67.5678 21.995 66.9091 22.797C66.2724 23.599 65.2843 24 63.945 24C63.1984 24 62.5837 23.9098 62.1006 23.7293C61.6176 23.5689 61.1894 23.3283 60.8162 23.0075C60.3331 22.5464 59.9928 21.995 59.7952 21.3534C59.6195 20.7118 59.5317 19.8596 59.5317 18.797V8.7218H56.3699V8.1203H59.5317V3.5188C60.0806 3.49875 60.6076 3.45865 61.1126 3.3985C61.6176 3.33835 62.0787 3.2381 62.4958 3.09774Z" fill="black"/>
<path d="M76.8395 7.66917C78.7717 7.66917 80.2757 8.21053 81.3516 9.29323C82.4494 10.3559 82.9983 12.0201 82.9983 14.2857H71.3723L71.3394 13.7143H79.8366C79.8805 12.7318 79.7927 11.8296 79.5731 11.0075C79.3535 10.1654 79.0022 9.49373 78.5192 8.99248C78.0581 8.49123 77.4543 8.2406 76.7078 8.2406C75.6978 8.2406 74.7975 8.70175 74.0071 9.62406C73.2386 10.5464 72.7775 12.01 72.6238 14.015L72.7226 14.1353C72.6787 14.4361 72.6458 14.7669 72.6238 15.1278C72.6019 15.4887 72.5909 15.8496 72.5909 16.2105C72.5909 17.5739 72.8324 18.7469 73.3155 19.7293C73.7985 20.7118 74.4243 21.4637 75.1928 21.985C75.9832 22.4862 76.7956 22.7368 77.6299 22.7368C78.2886 22.7368 78.9144 22.6466 79.5072 22.4662C80.1001 22.2657 80.649 21.9449 81.154 21.5038C81.659 21.0627 82.0981 20.4712 82.4714 19.7293L83.1301 19.9699C82.8885 20.6316 82.4933 21.2732 81.9444 21.8947C81.3955 22.5163 80.7038 23.0276 79.8695 23.4286C79.0351 23.8095 78.0691 24 76.9712 24C75.3904 24 74.0291 23.6692 72.8873 23.0075C71.7675 22.3459 70.9002 21.4336 70.2855 20.2707C69.6926 19.0877 69.3962 17.7343 69.3962 16.2105C69.3962 14.4461 69.7036 12.9323 70.3184 11.6692C70.9332 10.386 71.8005 9.40351 72.9202 8.7218C74.04 8.02005 75.3464 7.66917 76.8395 7.66917Z" fill="black"/>
<path d="M90.7334 0V20.782C90.7334 21.6241 90.92 22.1955 91.2933 22.4962C91.6885 22.797 92.3362 22.9474 93.2364 22.9474V23.5789C92.8632 23.5589 92.2923 23.5388 91.5238 23.5188C90.7773 23.4787 90.0198 23.4586 89.2513 23.4586C88.5048 23.4586 87.7473 23.4787 86.9788 23.5188C86.2103 23.5388 85.6395 23.5589 85.2662 23.5789V22.9474C86.1664 22.9474 86.8032 22.797 87.1764 22.4962C87.5716 22.1955 87.7692 21.6241 87.7692 20.782V3.60902C87.7692 2.70677 87.5936 2.04511 87.2423 1.62406C86.891 1.18296 86.2323 0.962406 85.2662 0.962406V0.330826C85.9688 0.390977 86.6495 0.421053 87.3082 0.421053C87.9449 0.421053 88.5487 0.390977 89.1196 0.330826C89.7124 0.250627 90.2503 0.140351 90.7334 0Z" fill="black"/>
</svg>
