<svg width="18" height="18" viewBox="0 0 18 18" fill="none" xmlns="http://www.w3.org/2000/svg">
<g clip-path="url(#clip0_4_198)">
<path d="M9 17.0625C4.5525 17.0625 0.9375 13.4475 0.9375 9C0.9375 4.5525 4.5525 0.9375 9 0.9375C13.4475 0.9375 17.0625 4.5525 17.0625 9C17.0625 13.4475 13.4475 17.0625 9 17.0625ZM9 2.0625C5.175 2.0625 2.0625 5.175 2.0625 9C2.0625 12.825 5.175 15.9375 9 15.9375C12.825 15.9375 15.9375 12.825 15.9375 9C15.9375 5.175 12.825 2.0625 9 2.0625Z" fill="white"/>
<path d="M6.87755 11.685C6.73505 11.685 6.59255 11.6325 6.48005 11.52C6.37544 11.4142 6.31677 11.2713 6.31677 11.1225C6.31677 10.9737 6.37544 10.8309 6.48005 10.725L10.725 6.48002C10.9425 6.26252 11.3025 6.26252 11.52 6.48002C11.7375 6.69752 11.7375 7.05752 11.52 7.27502L7.27505 11.52C7.17005 11.6325 7.02005 11.685 6.87755 11.685Z" fill="white"/>
<path d="M11.1225 11.685C10.98 11.685 10.8375 11.6325 10.725 11.52L6.48005 7.27502C6.37544 7.16917 6.31677 7.02634 6.31677 6.87752C6.31677 6.7287 6.37544 6.58587 6.48005 6.48002C6.69755 6.26252 7.05755 6.26252 7.27505 6.48002L11.52 10.725C11.7375 10.9425 11.7375 11.3025 11.52 11.52C11.4075 11.6325 11.265 11.685 11.1225 11.685Z" fill="white"/>
</g>
<defs>
<clipPath id="clip0_4_198">
<rect width="18" height="18" fill="white"/>
</clipPath>
</defs>
</svg>
